<?xml version="1.0" encoding="UTF-8" standalone="no"?>
<!-- Created with Inkscape (http://www.inkscape.org/) -->

<svg
   version="1.1"
   id="svg2"
   xml:space="preserve"
   width="557.61731"
   height="580.08533"
   viewBox="0 0 557.61731 580.08533"
   sodipodi:docname="KoldFnug.ai"
   xmlns:inkscape="http://www.inkscape.org/namespaces/inkscape"
   xmlns:sodipodi="http://sodipodi.sourceforge.net/DTD/sodipodi-0.dtd"
   xmlns="http://www.w3.org/2000/svg"
   xmlns:svg="http://www.w3.org/2000/svg"><defs
     id="defs6"><clipPath
       clipPathUnits="userSpaceOnUse"
       id="clipPath16"><path
         d="M 0,435.064 H 418.213 V 0 H 0 Z"
         id="path14" /></clipPath></defs><sodipodi:namedview
     id="namedview4"
     pagecolor="#ffffff"
     bordercolor="#666666"
     borderopacity="1.0"
     inkscape:pageshadow="2"
     inkscape:pageopacity="0.0"
     inkscape:pagecheckerboard="0" /><g
     id="g8"
     inkscape:groupmode="layer"
     inkscape:label="KoldFnug"
     transform="matrix(1.3333333,0,0,-1.3333333,0,580.08533)"><g
       id="g10"><g
         id="g12"
         clip-path="url(#clipPath16)"><g
           id="g18"
           transform="translate(161.4204,212.3076)"><path
             d="M 0,0 -0.05,10.738 7.874,5.304 Z m -52.756,5.3 -8.707,-7.203 -8.772,7.122 8.705,7.202 z m -34.942,-6.167 5.764,-0.008 20.544,-16.678 19.803,16.384 0.101,-21.637 20.966,0.099 c 3.321,0.016 6.024,2.729 6.024,6.079 -0.008,1.617 -0.644,3.134 -1.794,4.272 -1.147,1.137 -2.675,1.763 -4.286,1.752 l -8.863,-0.041 -0.046,10.001 17.384,0.081 0.103,-22.113 41.405,27.89 -41.669,28.577 0.103,-22.25 -17.382,-0.08 -0.075,15.991 c -0.016,3.328 -2.727,6.024 -6.051,6.024 h -0.03 c -3.322,-0.016 -6.024,-2.73 -6.024,-6.08 l 0.073,-15.524 -19.955,16.199 -20.356,-16.842 -6.185,0.008 41.754,38.596 -10.755,6.542 -40.361,-37.31 -0.042,8.912 c -0.015,3.327 -2.727,6.024 -6.051,6.024 h -0.029 c -3.321,-0.016 -6.023,-2.73 -6.023,-6.081 l 0.077,-16.652 -30.885,0.043 h -0.009 c -1.613,0 -3.13,-0.627 -4.273,-1.766 -1.144,-1.142 -1.776,-2.661 -1.778,-4.286 0,-3.332 2.71,-6.046 6.042,-6.052 l 30.961,-0.044 0.078,-17.015 c 0.017,-3.336 2.738,-6.049 6.081,-6.024 3.321,0.017 6.023,2.731 6.023,6.082 l -0.044,9.36 40.786,-37.013 0.285,-0.26 10.952,6.426 z"
             style="fill:#ffffff;fill-opacity:1;fill-rule:nonzero;stroke:none"
             id="path20" /></g><g
           id="g22"
           transform="translate(256.792,223.0913)"><path
             d="m 0,0 0.051,-10.739 -7.924,5.435 z m 52.755,-5.3 8.709,7.203 8.771,-7.122 -8.705,-7.202 z m 87.722,6.092 -30.96,0.044 -0.079,17.015 c -0.016,3.327 -2.727,6.024 -6.051,6.024 h -0.03 c -3.321,-0.016 -6.024,-2.731 -6.024,-6.081 L 97.377,8.433 56.838,45.225 56.552,45.483 45.59,39.067 87.698,0.867 81.935,0.875 61.391,17.552 41.588,1.168 41.486,22.806 20.521,22.708 c -3.322,-0.016 -6.024,-2.731 -6.024,-6.081 0.016,-3.327 2.727,-6.024 6.052,-6.023 h 0.028 l 8.861,0.041 0.047,-10.002 -17.383,-0.08 -0.105,22.113 -41.403,-27.891 41.669,-28.577 -0.105,22.25 17.384,0.082 0.075,-15.992 c 0.007,-1.617 0.644,-3.134 1.792,-4.272 1.149,-1.138 2.65,-1.771 4.287,-1.752 3.323,0.016 6.024,2.73 6.024,6.08 l -0.072,15.522 19.956,-16.197 20.354,16.842 6.187,-0.009 -41.789,-38.626 10.955,-6.357 40.195,37.155 0.043,-8.911 c 0.006,-1.617 0.643,-3.133 1.791,-4.272 1.148,-1.137 2.665,-1.755 4.289,-1.752 3.319,0.015 6.022,2.73 6.022,6.081 l -0.078,16.652 30.886,-0.044 h 0.01 c 1.613,0 3.13,0.628 4.273,1.767 1.144,1.142 1.776,2.661 1.778,4.286 0,3.332 -2.711,6.047 -6.043,6.051"
             style="fill:#ffffff;fill-opacity:1;fill-rule:nonzero;stroke:none"
             id="path24" /></g><g
           id="g26"
           transform="translate(158.7764,130.4639)"><path
             d="m 0,0 1.884,-11.142 -10.553,-4.038 -1.886,11.143 z m 30.968,43.038 -9.326,5.325 8.67,4.147 z M 44.607,21.311 41.155,71.111 -4.428,49.313 14.894,38.279 6.271,23.185 -7.615,31.115 c -2.897,1.656 -6.602,0.644 -8.257,-2.254 -1.648,-2.883 -0.648,-6.581 2.254,-8.257 l 13.48,-7.698 -24.006,-9.182 4.408,-26.05 -3.1,-5.352 -13.086,57.837 -11.021,-6.14 12.646,-55.89 -7.738,4.419 c -2.899,1.657 -6.601,0.643 -8.256,-2.254 -1.648,-2.885 -0.648,-6.582 2.252,-8.256 l 14.462,-8.26 -15.481,-26.726 c -0.81,-1.399 -1.027,-3.029 -0.611,-4.591 0.417,-1.564 1.416,-2.869 2.815,-3.679 l 0.034,-0.019 c 0.943,-0.539 1.971,-0.795 2.988,-0.795 2.09,10e-4 4.128,1.083 5.248,3.017 l 15.518,26.79 14.774,-8.438 c 2.898,-1.656 6.602,-0.644 8.256,2.253 1.648,2.885 0.648,6.582 -2.253,8.257 l -8.129,4.642 50.59,16.219 0.615,12.923 -52.917,-16.976 2.888,4.988 24.716,9.453 -4.287,25.342 18.787,-10.731 10.399,18.205 c 1.647,2.885 0.647,6.583 -2.253,8.258 -2.898,1.655 -6.604,0.643 -8.257,-2.253 l -4.396,-7.696 -8.685,4.961 8.622,15.094 z"
             style="fill:#ffffff;fill-opacity:1;fill-rule:nonzero;stroke:none"
             id="path28" /></g><g
           id="g30"
           transform="translate(237.7412,178.7402)"><path
             d="m 0,0 -9.27,-5.423 0.735,9.581 z m 32.434,-52.244 -1.77,-11.16 -10.595,3.926 1.77,11.163 z m 40.002,-25.254 c -1.678,2.867 -5.38,3.846 -8.281,2.168 l -8.08,-4.728 11.736,54.438 0.08,0.376 -11.028,6.346 -12.184,-56.572 -2.881,4.993 4.145,26.136 -24.101,8.931 18.678,10.926 -10.587,18.097 c -1.678,2.867 -5.379,3.847 -8.281,2.168 -2.88,-1.685 -3.851,-5.398 -2.168,-8.279 l 4.475,-7.649 -8.633,-5.05 -8.779,15.005 19.09,11.166 -44.88,21.865 -3.861,-50.378 19.205,11.234 8.778,-15.005 -13.805,-8.074 c -2.88,-1.685 -3.852,-5.4 -2.167,-8.28 1.676,-2.867 5.38,-3.847 8.28,-2.169 l 13.399,7.839 -4.025,-25.385 24.774,-9.182 3.09,-5.357 -53.726,16.621 -0.1,-12.638 51.741,-16.008 -7.694,-4.498 c -2.879,-1.687 -3.852,-5.4 -2.167,-8.281 1.677,-2.867 5.378,-3.846 8.226,-2.197 l 14.428,8.438 15.433,-26.753 c 0.807,-1.402 2.113,-2.403 3.673,-2.822 0.522,-0.14 1.051,-0.209 1.577,-0.209 1.05,0 2.086,0.276 3.024,0.817 2.884,1.668 3.876,5.375 2.21,8.261 l -15.47,26.817 14.688,8.593 c 2.878,1.684 3.852,5.398 2.168,8.279"
             style="fill:#ffffff;fill-opacity:1;fill-rule:nonzero;stroke:none"
             id="path32" /></g><g
           id="g34"
           transform="translate(148.4072,308.5947)"><path
             d="M 0,0 1.776,11.159 12.369,7.224 10.592,-3.935 Z m 40.933,-56.428 -8.533,4.164 9.273,5.416 z m -13.391,35.477 13.809,8.066 c 2.881,1.684 3.857,5.397 2.172,8.278 -1.674,2.867 -5.377,3.85 -8.276,2.173 l -13.406,-7.83 4.042,25.382 -24.768,9.199 -3.087,5.359 56.076,-17.388 V 24.96 L 0.121,41.699 7.816,46.194 c 2.882,1.683 3.856,5.396 2.173,8.278 -1.675,2.868 -5.378,3.85 -8.278,2.173 l -14.379,-8.399 -15.417,26.763 c -1.665,2.892 -5.373,3.887 -8.271,2.219 -2.886,-1.668 -3.88,-5.374 -2.217,-8.261 L -23.121,42.14 -37.813,33.559 c -2.881,-1.684 -3.855,-5.397 -2.173,-8.28 1.676,-2.866 5.378,-3.849 8.278,-2.172 l 8.084,4.722 -11.355,-52.511 -0.082,-0.383 11.082,-6.084 11.75,54.382 2.876,-4.994 -4.161,-26.133 24.094,-8.947 -18.683,-10.914 10.576,-18.103 c 1.674,-2.868 5.377,-3.85 8.277,-2.174 2.881,1.683 3.856,5.397 2.174,8.278 l -4.47,7.651 8.636,5.046 8.769,-15.01 -19.095,-11.156 44.865,-21.892 3.893,50.375 -19.211,-11.223 z"
             style="fill:#ffffff;fill-opacity:1;fill-rule:nonzero;stroke:none"
             id="path36" /></g><g
           id="g38"
           transform="translate(259.6562,304.5815)"><path
             d="M 0,0 -1.881,11.143 8.676,15.176 10.557,4.032 Z m -30.986,-43.025 9.324,-5.33 -8.67,-4.143 z m -13.629,21.733 3.432,-49.804 45.591,21.781 -19.317,11.041 8.628,15.092 13.884,-7.938 c 2.896,-1.654 6.601,-0.645 8.256,2.251 1.651,2.884 0.651,6.582 -2.249,8.258 l -13.477,7.705 24.01,9.172 -4.399,26.052 3.104,5.35 12.525,-55.464 10.922,6.587 -11.986,53.067 7.737,-4.423 c 1.404,-0.802 3.038,-1.011 4.596,-0.585 1.559,0.425 2.859,1.432 3.662,2.836 1.648,2.883 0.65,6.581 -2.251,8.256 l -14.456,8.266 15.49,26.72 c 0.81,1.398 1.029,3.029 0.612,4.591 -0.414,1.563 -1.414,2.87 -2.821,3.684 -2.883,1.667 -6.592,0.68 -8.263,-2.205 L 23.088,52.215 8.316,60.66 c -2.896,1.655 -6.6,0.648 -8.257,-2.251 -1.649,-2.883 -0.651,-6.58 2.25,-8.257 l 8.128,-4.647 -53.038,-16.98 -0.365,-0.116 V 15.684 L 12.145,33.339 9.252,28.352 -15.466,18.909 -11.188,-6.434 -29.974,4.305 -40.379,-13.897 c -1.648,-2.884 -0.649,-6.582 2.251,-8.258 2.898,-1.656 6.602,-0.647 8.258,2.251 l 4.397,7.694 8.685,-4.965 -8.629,-15.092 z"
             style="fill:#ffffff;fill-opacity:1;fill-rule:nonzero;stroke:none"
             id="path40" /></g></g></g></g></svg>
