          <svg
            width="75"
            height="75"
            viewBox="0 0 178 178"
            fill="none"
            xmlns="http://www.w3.org/2000/svg"
          >
            <path
              d="M51.8994 0.666748H126.099C154.366 0.666748 177.333 23.6334 177.333 51.9001V126.1C177.333 139.688 171.935 152.719 162.327 162.328C152.719 171.936 139.687 177.333 126.099 177.333H51.8994C23.6327 177.333 0.666016 154.367 0.666016 126.1V51.9001C0.666016 38.3122 6.0638 25.2808 15.6719 15.6726C25.28 6.06453 38.3114 0.666748 51.8994 0.666748ZM50.1327 18.3334C41.6988 18.3334 33.6103 21.6838 27.6467 27.6474C21.683 33.6111 18.3327 41.6995 18.3327 50.1334V127.867C18.3327 145.445 32.5543 159.667 50.1327 159.667H127.866C136.3 159.667 144.388 156.316 150.352 150.353C156.316 144.389 159.666 136.301 159.666 127.867V50.1334C159.666 32.5551 145.444 18.3334 127.866 18.3334H50.1327ZM135.374 31.5834C138.303 31.5834 141.111 32.7467 143.182 34.8174C145.253 36.8882 146.416 39.6967 146.416 42.6251C146.416 45.5535 145.253 48.362 143.182 50.4327C141.111 52.5034 138.303 53.6668 135.374 53.6668C132.446 53.6668 129.637 52.5034 127.567 50.4327C125.496 48.362 124.333 45.5535 124.333 42.6251C124.333 39.6967 125.496 36.8882 127.567 34.8174C129.637 32.7467 132.446 31.5834 135.374 31.5834ZM88.9994 44.8334C100.713 44.8334 111.947 49.4867 120.23 57.7695C128.513 66.0524 133.166 77.2864 133.166 89.0001C133.166 100.714 128.513 111.948 120.23 120.231C111.947 128.513 100.713 133.167 88.9994 133.167C77.2856 133.167 66.0517 128.513 57.7688 120.231C49.4859 111.948 44.8327 100.714 44.8327 89.0001C44.8327 77.2864 49.4859 66.0524 57.7688 57.7695C66.0517 49.4867 77.2856 44.8334 88.9994 44.8334ZM88.9994 62.5001C81.9711 62.5001 75.2307 65.292 70.261 70.2618C65.2913 75.2315 62.4994 81.9718 62.4994 89.0001C62.4994 96.0283 65.2913 102.769 70.261 107.738C75.2307 112.708 81.9711 115.5 88.9994 115.5C96.0276 115.5 102.768 112.708 107.738 107.738C112.707 102.769 115.499 96.0283 115.499 89.0001C115.499 81.9718 112.707 75.2315 107.738 70.2618C102.768 65.292 96.0276 62.5001 88.9994 62.5001Z"
              fill="white"
            />
          </svg>