<?xml version="1.0" encoding="UTF-8"?><svg id="Layer_2" xmlns="http://www.w3.org/2000/svg" viewBox="0 0 433.48 447.19"><defs><style>.cls-1{fill:#ebaf26;}</style></defs><g id="Layer_1-2"><g><polygon class="cls-1" points="254.66 135.23 165.9 46.47 45.82 166.55 209.63 330.37 92.81 447.19 45.82 447.19 163.29 329.71 0 166.42 166.42 0 300.35 133.92 254.66 135.23"/><polygon class="cls-1" points="321.23 135.23 232.47 46.47 112.38 166.55 276.2 330.37 159.37 447.19 112.38 447.19 229.86 329.71 66.57 166.42 232.99 0 366.91 133.92 321.23 135.23"/><polygon class="cls-1" points="387.8 135.23 299.04 46.47 178.95 166.55 342.77 330.37 225.94 447.19 178.95 447.19 296.43 329.71 133.14 166.42 299.56 0 433.48 133.92 387.8 135.23"/></g></g></svg>